<?xml version="1.0" encoding="UTF-8" standalone="no"?>
<!-- Created with Inkscape (http://www.inkscape.org/) -->

<svg
   xmlns:dc="http://purl.org/dc/elements/1.1/"
   xmlns:cc="http://creativecommons.org/ns#"
   xmlns:rdf="http://www.w3.org/1999/02/22-rdf-syntax-ns#"
   xmlns:svg="http://www.w3.org/2000/svg"
   xmlns="http://www.w3.org/2000/svg"
   xmlns:sodipodi="http://sodipodi.sourceforge.net/DTD/sodipodi-0.dtd"
   xmlns:inkscape="http://www.inkscape.org/namespaces/inkscape"
   id="svg4136"
   version="1.1"
   inkscape:version="0.91 r13725"
   width="98"
   height="62"
   viewBox="0 0 98 62"
   sodipodi:docname="logo.svg">
  <metadata
     id="metadata4142">
    <rdf:RDF>
      <cc:Work
         rdf:about="">
        <dc:format>image/svg+xml</dc:format>
        <dc:type
           rdf:resource="http://purl.org/dc/dcmitype/StillImage" />
        <dc:title></dc:title>
      </cc:Work>
    </rdf:RDF>
  </metadata>
  <defs
     id="defs4140">
    <inkscape:perspective
       sodipodi:type="inkscape:persp3d"
       inkscape:vp_x="80.383365 : 4.2737518 : 1"
       inkscape:vp_y="0 : 1000 : 0"
       inkscape:vp_z="200 : 100 : 1"
       inkscape:persp3d-origin="100 : 66.666667 : 1"
       id="perspective4536" />
  </defs>
  <sodipodi:namedview
     pagecolor="#ffffff"
     bordercolor="#666666"
     borderopacity="1"
     objecttolerance="10"
     gridtolerance="10"
     guidetolerance="10"
     inkscape:pageopacity="0"
     inkscape:pageshadow="2"
     inkscape:window-width="1920"
     inkscape:window-height="1017"
     id="namedview4138"
     showgrid="false"
     inkscape:zoom="8.48"
     inkscape:cx="84.086799"
     inkscape:cy="48.17222"
     inkscape:window-x="-8"
     inkscape:window-y="-8"
     inkscape:window-maximized="1"
     inkscape:current-layer="g4168" />
  <g
     style="display:inline;opacity:1"
     inkscape:label="Layer 1 copy"
     id="g4168"
     inkscape:groupmode="layer"
     transform="translate(0,-138)">
    <path
       sodipodi:nodetypes="csssccsscccccccsccsscccccccccccc"
       inkscape:connector-curvature="0"
       id="path4170"
       d="m 4.0254713,142.2889 c -0.00236,0.008 -0.069114,0.34461 -0.076197,0.93263 -0.00563,0.4664 -0.012027,0.99184 -0.017763,1.38051 -0.1229593,8.29004 -0.5862331,49.94363 -0.5166934,51.14949 0.076908,1.33366 2.8488031,1.30168 2.8488031,1.30168 l 87.467456,0.0723 c 0,0 0.788838,-0.37809 1.047773,-0.87024 0.212642,-0.40416 0.191601,-9.66774 0.177315,-12.96726 -0.0035,-0.71837 -0.345607,-1.15617 -0.345607,-1.15617 l -0.493936,-0.4436 -0.794393,-0.30115 -1.154724,-0.23097 -0.847942,-0.0404 -17.668861,-0.22362 -0.03447,-11.72656 c 0,0 -0.608719,-1.00552 -1.672838,-1.1781 -2.359193,-0.38261 -19.996195,-0.42179 -19.996195,-0.42179 l -0.01214,-11.65309 c 0,0 -0.161679,-0.29691 -0.431615,-0.62963 -0.281429,-0.34685 -0.882443,-0.54384 -1.35181,-0.56661 -8.184633,-0.39704 -19.697983,-0.37058 -19.697983,-0.37058 l -0.01733,-11.48036 -0.234246,-0.50902 -0.352381,-0.49072 -0.544904,-0.32369 -0.731652,-0.0954 -22.8555185,-0.0446 -0.2957559,0.0425 -0.3768568,0.0541 -0.5205469,0.19984 -0.2960911,0.22222 z"
       style="fill:#550000;fill-opacity:0;fill-rule:evenodd;stroke:#f6223f;stroke-width:5.67335844;stroke-linecap:butt;stroke-linejoin:miter;stroke-miterlimit:4;stroke-dasharray:none;stroke-opacity:1" />
    <path
       style="opacity:1;fill:#554400;fill-opacity:0"
       d="M 130.87097,96.604274 C 124.72548,96.537528 98.184093,96.428155 71.890107,96.361223 L 24.082863,96.239529 24.061135,74.037992 c -0.01195,-12.210845 0.03098,-27.511092 0.0954,-34.000548 l 0.117132,-11.79901 13.956197,0 13.956198,0 0.109702,3.028603 c 0.06034,1.665731 0.109703,4.580621 0.109703,6.477532 0,1.896912 0.04924,4.586563 0.109423,5.977003 l 0.109423,2.528072 16.02562,5.01e-4 c 8.814091,1.66e-4 17.526554,0.04909 19.361029,0.108556 l 3.335409,0.108119 0.03029,7.343629 c 0.01666,4.038995 0.08188,7.723719 0.144927,8.188273 0.09286,0.684224 0.235818,0.960496 0.75268,1.454615 0.350923,0.335484 1.05775,0.767003 1.570724,0.95893 0.912917,0.341566 1.173761,0.348966 12.308508,0.349198 6.2567,1.3e-4 14.24083,0.04974 17.74249,0.110255 l 6.36667,0.110017 0.054,8.186577 c 0.0622,9.423088 -0.009,8.98163 1.53634,9.506974 0.77688,0.264068 2.61111,0.318988 19.03406,0.569923 l 18.17434,0.277633 0.0987,2.835098 c 0.0543,1.559304 0.0614,4.494195 0.0158,6.521981 l -0.0829,3.686883 -1.75115,0.107145 c -2.14454,0.131215 -21.35318,0.09452 -36.47091,-0.06968 z"
       id="path4333"
       inkscape:connector-curvature="0" />
    <path
       style="opacity:1;fill:#554400;fill-opacity:0"
       d="M 130.87097,96.604274 C 124.72548,96.537528 98.184093,96.428155 71.890107,96.361223 L 24.082863,96.239529 24.061135,74.037992 c -0.01195,-12.210845 0.03098,-27.511092 0.0954,-34.000548 l 0.117132,-11.79901 13.956197,0 13.956198,0 0.109702,3.028603 c 0.06034,1.665731 0.109703,4.580621 0.109703,6.477532 0,1.896912 0.04924,4.586563 0.109423,5.977003 l 0.109423,2.528072 16.02562,5.01e-4 c 8.814091,1.66e-4 17.526554,0.04909 19.361029,0.108556 l 3.335409,0.108119 0.03029,7.343629 c 0.01666,4.038995 0.08188,7.723719 0.144927,8.188273 0.09286,0.684224 0.235818,0.960496 0.75268,1.454615 0.350923,0.335484 1.05775,0.767003 1.570724,0.95893 0.912917,0.341566 1.173761,0.348966 12.308508,0.349198 6.2567,1.3e-4 14.24083,0.04974 17.74249,0.110255 l 6.36667,0.110017 0.054,8.186577 c 0.0622,9.423088 -0.009,8.98163 1.53634,9.506974 0.77688,0.264068 2.61111,0.318988 19.03406,0.569923 l 18.17434,0.277633 0.0987,2.835098 c 0.0543,1.559304 0.0614,4.494195 0.0158,6.521981 l -0.0829,3.686883 -1.75115,0.107145 c -2.14454,0.131215 -21.35318,0.09452 -36.47091,-0.06968 z"
       id="path4335"
       inkscape:connector-curvature="0" />
    <path
       style="opacity:1;fill:#c14400;fill-opacity:0"
       d="m 13.925134,103.73067 c -1.066984,-0.2623 -1.518285,-0.51145 -1.853702,-1.02336 -0.247419,-0.37761 -0.254306,-3.739055 -0.08448,-41.228127 0.101699,-22.449351 0.231297,-42.70856 0.287996,-45.020465 l 0.103089,-4.203464 1.357243,-0.521857 1.357243,-0.521857 22.221479,-0.09497 c 21.08996,-0.09013 22.255102,-0.07981 22.881787,0.20279 0.36317,0.163767 0.84763,0.569299 1.07658,0.901183 l 0.416273,0.603425 0.117508,9.937447 0.11751,9.937446 14.524713,0.111205 c 15.794088,0.120921 23.765477,0.32547 24.803497,0.636467 0.36339,0.108873 0.86988,0.43619 1.12554,0.727371 l 0.46483,0.52942 0.11086,5.305946 c 0.061,2.918271 0.11085,7.459738 0.11085,10.092151 l 0,4.786206 17.4692,0.101146 c 18.20119,0.105386 21.05757,0.202099 22.26535,0.753891 0.66433,0.303511 1.60346,1.060839 1.64174,1.323919 0.009,0.06508 0.0658,4.558628 0.12508,9.985657 0.0593,5.427031 0.16813,9.927561 0.24179,10.001178 0.0737,0.07362 8.25375,0.184408 18.17798,0.246204 19.01534,0.118403 19.04069,0.119464 20.84368,0.872799 0.77446,0.323592 1.41356,1.148652 1.53831,1.985915 0.058,0.389391 0.0813,5.448698 0.0518,11.242906 l -0.0537,10.534928 -0.38439,0.40903 c -0.21141,0.22497 -0.66169,0.52541 -1.00062,0.66764 -0.54954,0.23062 -8.96326,0.29667 -77.74757,0.61025 -87.000265,0.39664 -91.112164,0.40143 -92.30746,0.10758 z"
       id="path4348"
       inkscape:connector-curvature="0" />
    <path
       style="opacity:1;fill:#c14400;fill-opacity:0"
       d="m 13.925134,103.73067 c -1.066984,-0.2623 -1.518285,-0.51145 -1.853702,-1.02336 -0.247419,-0.37761 -0.254306,-3.739055 -0.08448,-41.228127 0.101699,-22.449351 0.231297,-42.70856 0.287996,-45.020465 l 0.103089,-4.203464 1.357243,-0.521857 1.357243,-0.521857 22.221479,-0.09497 c 21.08996,-0.09013 22.255102,-0.07981 22.881787,0.20279 0.36317,0.163767 0.84763,0.569299 1.07658,0.901183 l 0.416273,0.603425 0.117508,9.937447 0.11751,9.937446 14.524713,0.111205 c 15.794088,0.120921 23.765477,0.32547 24.803497,0.636467 0.36339,0.108873 0.86988,0.43619 1.12554,0.727371 l 0.46483,0.52942 0.11086,5.305946 c 0.061,2.918271 0.11085,7.459738 0.11085,10.092151 l 0,4.786206 17.4692,0.101146 c 18.20119,0.105386 21.05757,0.202099 22.26535,0.753891 0.66433,0.303511 1.60346,1.060839 1.64174,1.323919 0.009,0.06508 0.0658,4.558628 0.12508,9.985657 0.0593,5.427031 0.16813,9.927561 0.24179,10.001178 0.0737,0.07362 8.25375,0.184408 18.17798,0.246204 19.01534,0.118403 19.04069,0.119464 20.84368,0.872799 0.77446,0.323592 1.41356,1.148652 1.53831,1.985915 0.058,0.389391 0.0813,5.448698 0.0518,11.242906 l -0.0537,10.534928 -0.38439,0.40903 c -0.21141,0.22497 -0.66169,0.52541 -1.00062,0.66764 -0.54954,0.23062 -8.96326,0.29667 -77.74757,0.61025 -87.000265,0.39664 -91.112164,0.40143 -92.30746,0.10758 z"
       id="path4350"
       inkscape:connector-curvature="0" />
    <path
       style="opacity:1;fill:#c14400;fill-opacity:0"
       d="m 13.925134,103.73067 c -1.066984,-0.2623 -1.518285,-0.51145 -1.853702,-1.02336 -0.247419,-0.37761 -0.254306,-3.739055 -0.08448,-41.228127 0.101699,-22.449351 0.231297,-42.70856 0.287996,-45.020465 l 0.103089,-4.203464 1.357243,-0.521857 1.357243,-0.521857 22.221479,-0.09497 c 21.08996,-0.09013 22.255102,-0.07981 22.881787,0.20279 0.36317,0.163767 0.84763,0.569299 1.07658,0.901183 l 0.416273,0.603425 0.117508,9.937447 0.11751,9.937446 14.524713,0.111205 c 15.794088,0.120921 23.765477,0.32547 24.803497,0.636467 0.36339,0.108873 0.86988,0.43619 1.12554,0.727371 l 0.46483,0.52942 0.11086,5.305946 c 0.061,2.918271 0.11085,7.459738 0.11085,10.092151 l 0,4.786206 17.4692,0.101146 c 18.20119,0.105386 21.05757,0.202099 22.26535,0.753891 0.66433,0.303511 1.60346,1.060839 1.64174,1.323919 0.009,0.06508 0.0658,4.558628 0.12508,9.985657 0.0593,5.427031 0.16813,9.927561 0.24179,10.001178 0.0737,0.07362 8.25375,0.184408 18.17798,0.246204 19.01534,0.118403 19.04069,0.119464 20.84368,0.872799 0.77446,0.323592 1.41356,1.148652 1.53831,1.985915 0.058,0.389391 0.0813,5.448698 0.0518,11.242906 l -0.0537,10.534928 -0.38439,0.40903 c -0.21141,0.22497 -0.66169,0.52541 -1.00062,0.66764 -0.54954,0.23062 -8.96326,0.29667 -77.74757,0.61025 -87.000265,0.39664 -91.112164,0.40143 -92.30746,0.10758 z"
       id="path4352"
       inkscape:connector-curvature="0" />
    <path
       style="opacity:1;fill:#c14400;fill-opacity:0"
       d="m 13.925134,103.73067 c -1.066984,-0.2623 -1.518285,-0.51145 -1.853702,-1.02336 -0.247419,-0.37761 -0.254306,-3.739055 -0.08448,-41.228127 0.101699,-22.449351 0.231297,-42.70856 0.287996,-45.020465 l 0.103089,-4.203464 1.357243,-0.521857 1.357243,-0.521857 22.221479,-0.09497 c 21.08996,-0.09013 22.255102,-0.07981 22.881787,0.20279 0.36317,0.163767 0.84763,0.569299 1.07658,0.901183 l 0.416273,0.603425 0.117508,9.937447 0.11751,9.937446 14.524713,0.111205 c 15.794088,0.120921 23.765477,0.32547 24.803497,0.636467 0.36339,0.108873 0.86988,0.43619 1.12554,0.727371 l 0.46483,0.52942 0.11086,5.305946 c 0.061,2.918271 0.11085,7.459738 0.11085,10.092151 l 0,4.786206 17.4692,0.101146 c 18.20119,0.105386 21.05757,0.202099 22.26535,0.753891 0.66433,0.303511 1.60346,1.060839 1.64174,1.323919 0.009,0.06508 0.0658,4.558628 0.12508,9.985657 0.0593,5.427031 0.16813,9.927561 0.24179,10.001178 0.0737,0.07362 8.25375,0.184408 18.17798,0.246204 19.01534,0.118403 19.04069,0.119464 20.84368,0.872799 0.77446,0.323592 1.41356,1.148652 1.53831,1.985915 0.058,0.389391 0.0813,5.448698 0.0518,11.242906 l -0.0537,10.534928 -0.38439,0.40903 c -0.21141,0.22497 -0.66169,0.52541 -1.00062,0.66764 -0.54954,0.23062 -8.96326,0.29667 -77.74757,0.61025 -87.000265,0.39664 -91.112164,0.40143 -92.30746,0.10758 z"
       id="path4354"
       inkscape:connector-curvature="0" />
    <path
       style="opacity:1;fill:#c14400;fill-opacity:0"
       d="m 13.925134,103.73067 c -1.066984,-0.2623 -1.518285,-0.51145 -1.853702,-1.02336 -0.247419,-0.37761 -0.254306,-3.739055 -0.08448,-41.228127 0.101699,-22.449351 0.231297,-42.70856 0.287996,-45.020465 l 0.103089,-4.203464 1.357243,-0.521857 1.357243,-0.521857 22.221479,-0.09497 c 21.08996,-0.09013 22.255102,-0.07981 22.881787,0.20279 0.36317,0.163767 0.84763,0.569299 1.07658,0.901183 l 0.416273,0.603425 0.117508,9.937447 0.11751,9.937446 14.524713,0.111205 c 15.794088,0.120921 23.765477,0.32547 24.803497,0.636467 0.36339,0.108873 0.86988,0.43619 1.12554,0.727371 l 0.46483,0.52942 0.11086,5.305946 c 0.061,2.918271 0.11085,7.459738 0.11085,10.092151 l 0,4.786206 17.4692,0.101146 c 18.20119,0.105386 21.05757,0.202099 22.26535,0.753891 0.66433,0.303511 1.60346,1.060839 1.64174,1.323919 0.009,0.06508 0.0658,4.558628 0.12508,9.985657 0.0593,5.427031 0.16813,9.927561 0.24179,10.001178 0.0737,0.07362 8.25375,0.184408 18.17798,0.246204 19.01534,0.118403 19.04069,0.119464 20.84368,0.872799 0.77446,0.323592 1.41356,1.148652 1.53831,1.985915 0.058,0.389391 0.0813,5.448698 0.0518,11.242906 l -0.0537,10.534928 -0.38439,0.40903 c -0.21141,0.22497 -0.66169,0.52541 -1.00062,0.66764 -0.54954,0.23062 -8.96326,0.29667 -77.74757,0.61025 -87.000265,0.39664 -91.112164,0.40143 -92.30746,0.10758 z"
       id="path4356"
       inkscape:connector-curvature="0" />
    <path
       style="opacity:1;fill:#c14400;fill-opacity:0"
       d="m 13.925134,103.73067 c -1.066984,-0.2623 -1.518285,-0.51145 -1.853702,-1.02336 -0.247419,-0.37761 -0.254306,-3.739055 -0.08448,-41.228127 0.101699,-22.449351 0.231297,-42.70856 0.287996,-45.020465 l 0.103089,-4.203464 1.357243,-0.521857 1.357243,-0.521857 22.221479,-0.09497 c 21.08996,-0.09013 22.255102,-0.07981 22.881787,0.20279 0.36317,0.163767 0.84763,0.569299 1.07658,0.901183 l 0.416273,0.603425 0.117508,9.937447 0.11751,9.937446 14.524713,0.111205 c 15.794088,0.120921 23.765477,0.32547 24.803497,0.636467 0.36339,0.108873 0.86988,0.43619 1.12554,0.727371 l 0.46483,0.52942 0.11086,5.305946 c 0.061,2.918271 0.11085,7.459738 0.11085,10.092151 l 0,4.786206 17.4692,0.101146 c 18.20119,0.105386 21.05757,0.202099 22.26535,0.753891 0.66433,0.303511 1.60346,1.060839 1.64174,1.323919 0.009,0.06508 0.0658,4.558628 0.12508,9.985657 0.0593,5.427031 0.16813,9.927561 0.24179,10.001178 0.0737,0.07362 8.25375,0.184408 18.17798,0.246204 19.01534,0.118403 19.04069,0.119464 20.84368,0.872799 0.77446,0.323592 1.41356,1.148652 1.53831,1.985915 0.058,0.389391 0.0813,5.448698 0.0518,11.242906 l -0.0537,10.534928 -0.38439,0.40903 c -0.21141,0.22497 -0.66169,0.52541 -1.00062,0.66764 -0.54954,0.23062 -8.96326,0.29667 -77.74757,0.61025 -87.000265,0.39664 -91.112164,0.40143 -92.30746,0.10758 z"
       id="path4358"
       inkscape:connector-curvature="0" />
    <path
       style="opacity:1;fill:#dd4e00;fill-opacity:0"
       d="m 13.925134,103.73067 c -1.066984,-0.2623 -1.518285,-0.51145 -1.853702,-1.02336 -0.247419,-0.37761 -0.254306,-3.739055 -0.08448,-41.228127 0.101699,-22.449351 0.231297,-42.70856 0.287996,-45.020465 l 0.103089,-4.203464 1.357243,-0.521857 1.357243,-0.521857 22.221479,-0.09497 c 21.08996,-0.09013 22.255102,-0.07981 22.881787,0.20279 0.36317,0.163767 0.84763,0.569299 1.07658,0.901183 l 0.416273,0.603425 0.117508,9.937447 0.11751,9.937446 14.524713,0.111205 c 15.794088,0.120921 23.765477,0.32547 24.803497,0.636467 0.36339,0.108873 0.86988,0.43619 1.12554,0.727371 l 0.46483,0.52942 0.11086,5.305946 c 0.061,2.918271 0.11085,7.459738 0.11085,10.092151 l 0,4.786206 17.4692,0.101146 c 18.20119,0.105386 21.05757,0.202099 22.26535,0.753891 0.66433,0.303511 1.60346,1.060839 1.64174,1.323919 0.009,0.06508 0.0658,4.558628 0.12508,9.985657 0.0593,5.427031 0.16813,9.927561 0.24179,10.001178 0.0737,0.07362 8.25375,0.184408 18.17798,0.246204 19.01534,0.118403 19.04069,0.119464 20.84368,0.872799 0.77446,0.323592 1.41356,1.148652 1.53831,1.985915 0.058,0.389391 0.0813,5.448698 0.0518,11.242906 l -0.0537,10.534928 -0.38439,0.40903 c -0.21141,0.22497 -0.66169,0.52541 -1.00062,0.66764 -0.54954,0.23062 -8.96326,0.29667 -77.74757,0.61025 -87.000265,0.39664 -91.112164,0.40143 -92.30746,0.10758 z"
       id="path4360"
       inkscape:connector-curvature="0" />
    <path
       style="opacity:1;fill:#dd4e00;fill-opacity:0"
       d="m 13.925134,103.73067 c -1.066984,-0.2623 -1.518285,-0.51145 -1.853702,-1.02336 -0.247419,-0.37761 -0.254306,-3.739055 -0.08448,-41.228127 0.101699,-22.449351 0.231297,-42.70856 0.287996,-45.020465 l 0.103089,-4.203464 1.357243,-0.521857 1.357243,-0.521857 22.221479,-0.09497 c 21.08996,-0.09013 22.255102,-0.07981 22.881787,0.20279 0.36317,0.163767 0.84763,0.569299 1.07658,0.901183 l 0.416273,0.603425 0.117508,9.937447 0.11751,9.937446 14.524713,0.111205 c 15.794088,0.120921 23.765477,0.32547 24.803497,0.636467 0.36339,0.108873 0.86988,0.43619 1.12554,0.727371 l 0.46483,0.52942 0.11086,5.305946 c 0.061,2.918271 0.11085,7.459738 0.11085,10.092151 l 0,4.786206 17.4692,0.101146 c 18.20119,0.105386 21.05757,0.202099 22.26535,0.753891 0.66433,0.303511 1.60346,1.060839 1.64174,1.323919 0.009,0.06508 0.0658,4.558628 0.12508,9.985657 0.0593,5.427031 0.16813,9.927561 0.24179,10.001178 0.0737,0.07362 8.25375,0.184408 18.17798,0.246204 19.01534,0.118403 19.04069,0.119464 20.84368,0.872799 0.77446,0.323592 1.41356,1.148652 1.53831,1.985915 0.058,0.389391 0.0813,5.448698 0.0518,11.242906 l -0.0537,10.534928 -0.38439,0.40903 c -0.21141,0.22497 -0.66169,0.52541 -1.00062,0.66764 -0.54954,0.23062 -8.96326,0.29667 -77.74757,0.61025 -87.000265,0.39664 -91.112164,0.40143 -92.30746,0.10758 z"
       id="path4362"
       inkscape:connector-curvature="0" />
    <path
       style="opacity:1;fill:#dd4e00;fill-opacity:0"
       d="m 13.925134,103.73067 c -1.066984,-0.2623 -1.518285,-0.51145 -1.853702,-1.02336 -0.247419,-0.37761 -0.254306,-3.739055 -0.08448,-41.228127 0.101699,-22.449351 0.231297,-42.70856 0.287996,-45.020465 l 0.103089,-4.203464 1.357243,-0.521857 1.357243,-0.521857 22.221479,-0.09497 c 21.08996,-0.09013 22.255102,-0.07981 22.881787,0.20279 0.36317,0.163767 0.84763,0.569299 1.07658,0.901183 l 0.416273,0.603425 0.117508,9.937447 0.11751,9.937446 14.524713,0.111205 c 15.794088,0.120921 23.765477,0.32547 24.803497,0.636467 0.36339,0.108873 0.86988,0.43619 1.12554,0.727371 l 0.46483,0.52942 0.11086,5.305946 c 0.061,2.918271 0.11085,7.459738 0.11085,10.092151 l 0,4.786206 17.4692,0.101146 c 18.20119,0.105386 21.05757,0.202099 22.26535,0.753891 0.66433,0.303511 1.60346,1.060839 1.64174,1.323919 0.009,0.06508 0.0658,4.558628 0.12508,9.985657 0.0593,5.427031 0.16813,9.927561 0.24179,10.001178 0.0737,0.07362 8.25375,0.184408 18.17798,0.246204 19.01534,0.118403 19.04069,0.119464 20.84368,0.872799 0.77446,0.323592 1.41356,1.148652 1.53831,1.985915 0.058,0.389391 0.0813,5.448698 0.0518,11.242906 l -0.0537,10.534928 -0.38439,0.40903 c -0.21141,0.22497 -0.66169,0.52541 -1.00062,0.66764 -0.54954,0.23062 -8.96326,0.29667 -77.74757,0.61025 -87.000265,0.39664 -91.112164,0.40143 -92.30746,0.10758 z"
       id="path4364"
       inkscape:connector-curvature="0" />
    <path
       style="opacity:1;fill:#dd4e00;fill-opacity:0"
       d="m 13.925134,103.73067 c -1.066984,-0.2623 -1.518285,-0.51145 -1.853702,-1.02336 -0.247419,-0.37761 -0.254306,-3.739055 -0.08448,-41.228127 0.101699,-22.449351 0.231297,-42.70856 0.287996,-45.020465 l 0.103089,-4.203464 1.357243,-0.521857 1.357243,-0.521857 22.221479,-0.09497 c 21.08996,-0.09013 22.255102,-0.07981 22.881787,0.20279 0.36317,0.163767 0.84763,0.569299 1.07658,0.901183 l 0.416273,0.603425 0.117508,9.937447 0.11751,9.937446 14.524713,0.111205 c 15.794088,0.120921 23.765477,0.32547 24.803497,0.636467 0.36339,0.108873 0.86988,0.43619 1.12554,0.727371 l 0.46483,0.52942 0.11086,5.305946 c 0.061,2.918271 0.11085,7.459738 0.11085,10.092151 l 0,4.786206 17.4692,0.101146 c 18.20119,0.105386 21.05757,0.202099 22.26535,0.753891 0.66433,0.303511 1.60346,1.060839 1.64174,1.323919 0.009,0.06508 0.0658,4.558628 0.12508,9.985657 0.0593,5.427031 0.16813,9.927561 0.24179,10.001178 0.0737,0.07362 8.25375,0.184408 18.17798,0.246204 19.01534,0.118403 19.04069,0.119464 20.84368,0.872799 0.77446,0.323592 1.41356,1.148652 1.53831,1.985915 0.058,0.389391 0.0813,5.448698 0.0518,11.242906 l -0.0537,10.534928 -0.38439,0.40903 c -0.21141,0.22497 -0.66169,0.52541 -1.00062,0.66764 -0.54954,0.23062 -8.96326,0.29667 -77.74757,0.61025 -87.000265,0.39664 -91.112164,0.40143 -92.30746,0.10758 z"
       id="path4366"
       inkscape:connector-curvature="0" />
    <path
       style="opacity:1;fill:#dd4e00;fill-opacity:0"
       d="m 13.925134,103.73067 c -1.066984,-0.2623 -1.518285,-0.51145 -1.853702,-1.02336 -0.247419,-0.37761 -0.254306,-3.739055 -0.08448,-41.228127 0.101699,-22.449351 0.231297,-42.70856 0.287996,-45.020465 l 0.103089,-4.203464 1.357243,-0.521857 1.357243,-0.521857 22.221479,-0.09497 c 21.08996,-0.09013 22.255102,-0.07981 22.881787,0.20279 0.36317,0.163767 0.84763,0.569299 1.07658,0.901183 l 0.416273,0.603425 0.117508,9.937447 0.11751,9.937446 14.524713,0.111205 c 15.794088,0.120921 23.765477,0.32547 24.803497,0.636467 0.36339,0.108873 0.86988,0.43619 1.12554,0.727371 l 0.46483,0.52942 0.11086,5.305946 c 0.061,2.918271 0.11085,7.459738 0.11085,10.092151 l 0,4.786206 17.4692,0.101146 c 18.20119,0.105386 21.05757,0.202099 22.26535,0.753891 0.66433,0.303511 1.60346,1.060839 1.64174,1.323919 0.009,0.06508 0.0658,4.558628 0.12508,9.985657 0.0593,5.427031 0.16813,9.927561 0.24179,10.001178 0.0737,0.07362 8.25375,0.184408 18.17798,0.246204 19.01534,0.118403 19.04069,0.119464 20.84368,0.872799 0.77446,0.323592 1.41356,1.148652 1.53831,1.985915 0.058,0.389391 0.0813,5.448698 0.0518,11.242906 l -0.0537,10.534928 -0.38439,0.40903 c -0.21141,0.22497 -0.66169,0.52541 -1.00062,0.66764 -0.54954,0.23062 -8.96326,0.29667 -77.74757,0.61025 -87.000265,0.39664 -91.112164,0.40143 -92.30746,0.10758 z"
       id="path4368"
       inkscape:connector-curvature="0" />
    <g
       sodipodi:type="inkscape:box3d"
       id="g4538"
       style="opacity:1;fill:#4b4e00;fill-opacity:0"
       inkscape:perspectiveID="#perspective4536"
       inkscape:corner0="0.70348453 : 0.09650761 : 0 : 1"
       inkscape:corner7="-0.039060015 : 0.029547027 : 0.25 : 1">
      <path
         sodipodi:type="inkscape:box3dside"
         id="path4550"
         style="fill:#e9e9ff;fill-rule:evenodd;stroke:none;stroke-width:1px;stroke-linecap:butt;stroke-linejoin:round;stroke-opacity:1"
         inkscape:box3dsidetype="11"
         d="m 105.73334,101.13345 15.54453,-57.390809 0,55.296368 -15.54453,36.371951 z"
         points="121.27787,43.742641 121.27787,99.039009 105.73334,135.41096 105.73334,101.13345 " />
      <path
         sodipodi:type="inkscape:box3dside"
         id="path4540"
         style="fill:#353564;fill-rule:evenodd;stroke:none;stroke-width:1px;stroke-linecap:butt;stroke-linejoin:round;stroke-opacity:1"
         inkscape:box3dsidetype="6"
         d="m 91.898958,101.44655 0,39.30801 13.834382,-5.3436 0,-34.27751 z"
         points="91.898958,140.75456 105.73334,135.41096 105.73334,101.13345 91.898958,101.44655 " />
      <path
         sodipodi:type="inkscape:box3dside"
         id="path4542"
         style="fill:#4d4d9f;fill-rule:evenodd;stroke:none;stroke-width:1px;stroke-linecap:butt;stroke-linejoin:round;stroke-opacity:1"
         inkscape:box3dsidetype="5"
         d="m 91.898958,101.44655 8.898412,-72.07977 20.4805,14.375861 -15.54453,57.390809 z"
         points="100.79737,29.36678 121.27787,43.742641 105.73334,101.13345 91.898958,101.44655 " />
      <path
         sodipodi:type="inkscape:box3dside"
         id="path4548"
         style="fill:#afafde;fill-rule:evenodd;stroke:none;stroke-width:1px;stroke-linecap:butt;stroke-linejoin:round;stroke-opacity:1"
         inkscape:box3dsidetype="13"
         d="m 91.898958,140.75456 8.898412,-41.705403 20.4805,-0.01015 -15.54453,36.371951 z"
         points="100.79737,99.049157 121.27787,99.039009 105.73334,135.41096 91.898958,140.75456 " />
      <path
         sodipodi:type="inkscape:box3dside"
         id="path4546"
         style="fill:#d7d7ff;fill-rule:evenodd;stroke:none;stroke-width:1px;stroke-linecap:butt;stroke-linejoin:round;stroke-opacity:1"
         inkscape:box3dsidetype="14"
         d="m 100.79737,29.36678 0,69.682377 20.4805,-0.01015 0,-55.296368 z"
         points="100.79737,99.049157 121.27787,99.039009 121.27787,43.742641 100.79737,29.36678 " />
      <path
         sodipodi:type="inkscape:box3dside"
         id="path4544"
         style="fill:#8686bf;fill-rule:evenodd;stroke:none;stroke-width:1px;stroke-linecap:butt;stroke-linejoin:round;stroke-opacity:1"
         inkscape:box3dsidetype="3"
         d="m 91.898958,101.44655 8.898412,-72.07977 0,69.682377 -8.898412,41.705403 z"
         points="100.79737,29.36678 100.79737,99.049157 91.898958,140.75456 91.898958,101.44655 " />
    </g>
    <path
       sodipodi:type="star"
       style="opacity:1;fill:#4b4e00;fill-opacity:0"
       id="path4554"
       sodipodi:sides="5"
       sodipodi:cx="28.350979"
       sodipodi:cy="94.267525"
       sodipodi:r1="54.604023"
       sodipodi:r2="27.302011"
       sodipodi:arg1="0.48277096"
       sodipodi:arg2="1.1110895"
       inkscape:flatsided="false"
       inkscape:rounded="0"
       inkscape:randomized="0"
       d="M 76.714414,119.61664 40.464482,118.73511 19.187665,148.09719 8.8241983,113.34905 -25.675696,102.18698 4.1692612,81.592969 4.1239712,45.332349 32.932636,67.352691 67.40454,56.10447 55.364316,90.307799 Z"
       inkscape:transform-center-x="2.8316197"
       inkscape:transform-center-y="2.4472454" />
    <path
       style="opacity:1;fill:#4b4e00;fill-opacity:0"
       id="path4558"
       d="m 42.697735,91.394645 c 0.850315,2.205756 1.585254,4.45222 2.503721,6.63086 0.850011,1.990495 1.840259,3.938015 3.145403,5.673675 0.599938,0.79784 1.051317,1.24043 1.726525,1.95862 1.297385,1.41983 2.78967,1.99542 4.544724,2.59391 2.000136,0.65287 4.083914,1.01681 6.140948,1.44328 4.824429,0.99803 9.685194,1.83011 14.558308,2.55232 3.253264,0.42844 6.518378,0.77363 9.785145,1.08309 1.196604,0.11177 2.398132,0.20112 3.589182,-0.0195 1.126222,-0.20857 1.490462,-0.38251 2.621137,-0.76604 -0.80928,0.45211 4.437649,-1.99348 3.269127,-1.64382 -0.805727,0.24109 -1.604964,1.65007 -2.259745,1.12226 -0.604337,-0.48715 1.202076,-0.98527 1.759342,-1.52563 1.641795,-1.592 1.810835,-1.99601 3.166036,-3.85878 0.428967,-0.78387 0.907306,-1.54268 1.286901,-2.35161 1.394728,-2.97222 2.395411,-6.559896 2.510461,-9.854722 0.0279,-0.797907 -0.0503,-1.595996 -0.0754,-2.393994 -0.13777,-0.8372 -0.21672,-1.686232 -0.41332,-2.5116 -0.43586,-1.829778 -1.223836,-3.785933 -1.995634,-5.48432 -0.974212,-2.143809 -2.290958,-4.627781 -3.481888,-6.636055 -0.735734,-1.240675 -1.535153,-2.442463 -2.30273,-3.663694 -3.345321,-5.074015 -7.243503,-9.753631 -11.697336,-13.891697 -2.804459,-2.605629 -3.906809,-3.368129 -6.916368,-5.727772 -3.138162,-2.425663 -6.57028,-4.417447 -9.956691,-6.465148 0,0 3.729949,-2.405613 3.729949,-2.405613 l 0,0 c 3.333181,2.119323 6.722684,4.164543 9.846808,6.592349 3.021985,2.377074 4.127697,3.142645 6.939749,5.77101 4.464822,4.173173 8.359899,8.893756 11.771937,13.958475 2.166801,3.353291 4.268184,6.653932 5.992154,10.264647 0.83163,1.741761 1.64249,3.653383 2.12257,5.534745 0.21405,0.838805 0.30876,1.703615 0.46315,2.555423 0.0341,0.816265 0.12231,1.63206 0.10241,2.448797 -0.0802,3.288875 -1.14016,7.045961 -2.47147,10.036349 -0.36611,0.82235 -0.82938,1.59792 -1.24407,2.39689 -1.34706,1.93986 -1.45184,2.26943 -3.090462,3.93928 -2.453572,2.50031 -3.678519,2.84912 -7.434918,5.09218 -0.568204,0.33929 -1.152614,0.65279 -1.749457,0.93871 -0.530271,0.25404 -1.085273,0.45285 -1.627909,0.67927 -0.497355,0.15812 -0.987958,0.3393 -1.492064,0.47436 -1.617325,0.43331 -3.256773,0.42366 -4.904318,0.19724 -3.198752,-0.37021 -6.393149,-0.7873 -9.579054,-1.2545 -4.91628,-0.74989 -9.823115,-1.57038 -14.714589,-2.46771 -2.113802,-0.38868 -4.255486,-0.72153 -6.294748,-1.42101 -1.773302,-0.63274 -3.324542,-1.391 -4.600058,-2.84032 -0.703336,-0.77705 -1.103131,-1.17906 -1.729365,-2.0409 -1.292887,-1.77932 -2.287795,-3.75418 -3.175921,-5.75901 -0.940269,-2.141378 -1.704329,-4.353154 -2.647763,-6.492918 0,0 4.279591,-2.461417 4.279591,-2.461417 z"
       inkscape:connector-curvature="0" />
  </g>
  <path
     style="opacity:1;fill:#dd4e00;fill-opacity:0"
     d="M 15.75464,2.5806 C 15.249787,2.39622 14.758555,1.92027 14.663015,1.52292 c -0.09554,-0.39735 -0.05433,-20.79332 0.09158,-45.324382 0.210864,-35.451964 0.352642,-44.689347 0.691105,-45.028025 0.701416,-0.701863 5.500212,-0.862089 26.807526,-0.895068 l 20.244012,-0.03133 0.844195,0.750467 0.844192,0.750467 0.226388,10.089613 0.226391,10.089614 9.371169,0.02935 c 5.154145,0.01614 13.97768,0.131745 19.607854,0.256892 10.189813,0.226497 10.240563,0.231189 11.085423,1.024891 l 0.84874,0.797353 0.0882,10.035992 0.0882,10.035993 19.34537,0.16677 c 18.74712,0.161614 19.38148,0.187931 20.51277,0.850973 1.04523,0.612605 1.19011,0.874378 1.38456,2.501557 0.11944,0.999546 0.23201,5.583343 0.25015,10.186223 l 0.033,8.36886 7.05814,0.21982 c 3.88198,0.12089 11.97963,0.21981 17.9948,0.21981 11.3813,0 13.68972,0.21115 14.92881,1.36554 0.69768,0.64999 0.71025,0.86191 0.71025,11.9814 l 0,11.31971 -0.75047,0.48993 C 186.54683,2.19873 177.79232,2.31292 122.73858,2.61606 45.108156,3.04353 16.996708,3.03421 15.754653,2.58056 Z"
     id="path4370"
     inkscape:connector-curvature="0" />
  <path
     style="opacity:1;fill:#dd4e00;fill-opacity:0"
     d="M 15.75464,2.5806 C 15.249787,2.39622 14.758555,1.92027 14.663015,1.52292 c -0.09554,-0.39735 -0.05433,-20.79332 0.09158,-45.324382 0.210864,-35.451964 0.352642,-44.689347 0.691105,-45.028025 0.701416,-0.701863 5.500212,-0.862089 26.807526,-0.895068 l 20.244012,-0.03133 0.844195,0.750467 0.844192,0.750467 0.226388,10.089613 0.226391,10.089614 9.371169,0.02935 c 5.154145,0.01614 13.97768,0.131745 19.607854,0.256892 10.189813,0.226497 10.240563,0.231189 11.085423,1.024891 l 0.84874,0.797353 0.0882,10.035992 0.0882,10.035993 19.34537,0.16677 c 18.74712,0.161614 19.38148,0.187931 20.51277,0.850973 1.04523,0.612605 1.19011,0.874378 1.38456,2.501557 0.11944,0.999546 0.23201,5.583343 0.25015,10.186223 l 0.033,8.36886 7.05814,0.21982 c 3.88198,0.12089 11.97963,0.21981 17.9948,0.21981 11.3813,0 13.68972,0.21115 14.92881,1.36554 0.69768,0.64999 0.71025,0.86191 0.71025,11.9814 l 0,11.31971 -0.75047,0.48993 C 186.54683,2.19873 177.79232,2.31292 122.73858,2.61606 45.108156,3.04353 16.996708,3.03421 15.754653,2.58056 Z"
     id="path4372"
     inkscape:connector-curvature="0" />
</svg>
